<svg width="24" height="24" id="prem" class="w-7 h-7 text-dark-900" viewBox="0 0 24 24" fill="none"
     xmlns="http://www.w3.org/2000/svg">
    <path d="M10.6944 14.9163L11.5499 15.0552L12.0914 14.392L11.7838 13.5899L10.9206 13.456L10.3842 14.133L10.6944 14.9151V14.9163Z"
          fill="currentColor"/>
    <path d="M14.3997 13.3208L14.0997 12.5738L13.2913 12.4323L12.7866 13.0655L13.0663 13.8176L13.8887 13.954L14.3997 13.3221V13.3208Z"
          fill="currentColor"/>
    <path d="M14.3057 10.4089L13.5176 10.27L13.0091 10.8832L13.3104 11.624L14.0883 11.7291L14.5828 11.1284L14.3069 10.4101L14.3057 10.4089Z"
          fill="currentColor"/>
    <path d="M12.8833 9.72438L12.5668 8.94228L11.7113 8.80338L11.1748 9.48037L11.4837 10.2687L12.3405 10.4014L12.8833 9.72563V9.72438Z"
          fill="currentColor"/>
    <path d="M10.3664 9.6931L9.55027 9.55795L9.02527 10.1962L9.33035 10.957L10.1426 11.0659L10.6384 10.4452L10.3664 9.69435V9.6931Z"
          fill="currentColor"/>
    <path d="M9.03289 11.7529L8.53841 12.361L8.83205 13.1018L9.61 13.207L10.1032 12.6126L9.82991 11.868L9.03162 11.7541L9.03289 11.7529Z"
          fill="currentColor"/>
    <path d="M6.6825 9.78571L6.36725 10.6704L6.99139 11.3712L7.9257 11.1985L8.24094 10.3075L7.6168 9.61177L6.6825 9.78446V9.78571Z"
          fill="currentColor"/>
    <path d="M8.1354 13.1406L7.5405 12.4574L6.63543 12.6188L6.33162 13.4747L6.93797 14.153L7.83032 13.9866L8.13413 13.1419L8.1354 13.1406Z"
          fill="currentColor"/>
    <path d="M9.51849 16.0363L9.81085 15.2141L9.23247 14.5472L8.38079 14.7311L8.0719 15.5407L8.66172 16.1902L9.51976 16.035L9.51849 16.0363Z"
          fill="currentColor"/>
    <path d="M12.1091 17.145L12.3837 16.3692L11.8345 15.7435L11.0057 15.8924L10.7312 16.6682L11.274 17.3177L12.1091 17.145Z"
          fill="currentColor"/>
    <path d="M14.5268 15.9612L14.7899 15.2204L14.2586 14.611L13.4768 14.7549L13.1908 15.507L13.7273 16.1276L14.5268 15.9612Z"
          fill="currentColor"/>
    <path d="M15.3544 12.8015L15.0391 13.6862L15.6582 14.3983L16.5798 14.2256L16.9128 13.3471L16.2937 12.6288L15.3544 12.8015Z"
          fill="currentColor"/>
    <path d="M16.3472 9.84826L15.437 10.0097L15.1332 10.8544L15.723 11.5501L16.6332 11.3887L16.937 10.5265L16.3472 9.84826Z"
          fill="currentColor"/>
    <path d="M15.3201 8.26905L14.748 7.60833L13.8786 7.7635L13.5862 8.58565L14.1646 9.24637L15.0277 9.0912L15.3188 8.26905H15.3201Z"
          fill="currentColor"/>
    <path d="M11.1583 6.84374L10.8837 7.62459L11.4329 8.25653L12.2617 8.10762L12.5362 7.32051L11.9871 6.69482L11.1583 6.84374Z"
          fill="currentColor"/>
    <path d="M8.52066 7.66588L8.23464 8.41795L8.77743 9.01486L9.57064 8.87721L9.83377 8.11262L9.29734 7.52072L8.52066 7.66463V7.66588Z"
          fill="currentColor"/>
    <path d="M15.0925 6.75239L14.9819 5.73002L14.0247 5.31082L13.1845 5.9315L13.3014 6.95386L14.2523 7.35555L15.0925 6.75239Z"
          fill="currentColor"/>
    <path d="M10.1541 4.99921L9.34816 5.59111L9.45875 6.55591L10.3803 6.9576L11.1735 6.36571L11.063 5.38964L10.1528 4.99921H10.1541Z"
          fill="currentColor"/>
    <path d="M6.2147 8.42421L7.07782 8.79712L7.84815 8.25152L7.7312 7.3155L6.86172 6.94259L6.10284 7.50571L6.21343 8.42546L6.2147 8.42421Z"
          fill="currentColor"/>
    <path d="M6.20966 11.8129L6.11686 10.9345L5.29442 10.5728L4.55968 11.1009L4.67663 11.9856L5.49399 12.3297L6.2122 11.8129H6.20966Z"
          fill="currentColor"/>
    <path d="M6.32021 15.9499L7.00283 15.4506L6.91003 14.6172L6.12827 14.2781L5.44565 14.7837L5.53845 15.6171L6.32021 15.9499Z"
          fill="currentColor"/>
    <path d="M9.25529 18.6842L10.0777 18.0635L9.96715 17.0461L9.00996 16.6445L8.16972 17.2476L8.28667 18.27L9.25529 18.6842Z"
          fill="currentColor"/>
    <path d="M13.1248 18.9945L13.918 18.4202L13.8074 17.4441L12.9023 17.0537L12.0913 17.628L12.2019 18.6104L13.1235 18.9958L13.1248 18.9945Z"
          fill="currentColor"/>
    <path d="M17.0526 15.5758L16.1895 15.1966L15.4306 15.7535L15.5247 16.6783L16.4005 17.0574L17.1645 16.4943L17.0539 15.5745L17.0526 15.5758Z"
          fill="currentColor"/>
    <path d="M17.9807 13.4272L18.704 12.8929L18.5934 12.0144L17.7709 11.6703L17.0591 12.1983L17.1519 13.0768L17.9807 13.4272Z"
          fill="currentColor"/>
    <path d="M17.823 9.21632L17.7302 8.38291L16.9484 8.05005L16.2658 8.54935L16.3599 9.38276L17.1417 9.72188L17.8243 9.21632H17.823Z"
          fill="currentColor"/>
    <path d="M19.8658 9.70436L18.7865 9.35398L17.9349 10.1186L18.1853 11.2098L19.2645 11.5601L20.1162 10.7956L19.8658 9.70436Z"
          fill="currentColor"/>
    <path d="M15.868 7.1716L16.8951 7.50446L17.701 6.79243L17.4734 5.74629L16.4463 5.41342L15.6404 6.13171L15.868 7.1716Z"
          fill="currentColor"/>
    <path d="M11.5091 4.29846L11.7252 5.28704L12.7002 5.60364L13.4591 4.92539L13.243 3.93681L12.268 3.62022L11.5091 4.29846Z"
          fill="currentColor"/>
    <path d="M8.00704 6.52213L8.73033 5.87892L8.53203 4.95416L7.61552 4.65509L6.89222 5.28703L7.08417 6.22305L8.00576 6.52213H8.00704Z"
          fill="currentColor"/>
    <path d="M4.93088 9.83702L5.60841 9.2276L5.42155 8.35414L4.55843 8.07884L3.87581 8.67074L4.06267 9.55546L4.93215 9.83702H4.93088Z"
          fill="currentColor"/>
    <path d="M3.39659 14.2956L4.47581 14.646L5.32749 13.899L5.09359 12.7902L4.00166 12.4399L3.14998 13.1982L3.39532 14.2956H3.39659Z"
          fill="currentColor"/>
    <path d="M7.4007 16.8284L6.36724 16.4956L5.56768 17.2188L5.78886 18.265L6.82232 18.5816L7.62188 17.8696L7.4007 16.8297V16.8284Z"
          fill="currentColor"/>
    <path d="M11.7532 19.7015L11.5549 18.708L10.5799 18.4089L9.80957 19.0696L10.0257 20.0632L11.0007 20.3785L11.7532 19.7003V19.7015Z"
          fill="currentColor"/>
    <path d="M15.2616 17.4779L14.5383 18.1211L14.7481 19.0571L15.6697 19.3387L16.3764 18.713L16.1832 17.7769L15.2616 17.4779Z"
          fill="currentColor"/>
    <path d="M18.7102 15.9212L19.3878 15.323L19.2009 14.4496L18.3378 14.168L17.6552 14.7661L17.8471 15.6396L18.7102 15.9212Z"
          fill="currentColor"/>
    <path d="M18.2552 16.4893L17.462 17.4541L17.912 18.6141L19.1552 18.8093L19.9548 17.8445L19.5048 16.6845L18.2565 16.4893H18.2552Z"
          fill="currentColor"/>
    <path d="M21.8971 12.6238L21.4649 11.5326L20.2916 11.3549L19.5391 12.2572L19.9764 13.3659L21.1496 13.5386L21.8971 12.6251V12.6238Z"
          fill="currentColor"/>
    <path d="M18.1903 7.00516L18.5984 8.03879L19.7017 8.20522L20.4136 7.35554L20.0056 6.32692L18.8971 6.14296L18.1903 7.00516Z"
          fill="currentColor"/>
    <path d="M15.2083 4.58001L15.868 3.77037L15.4892 2.80556L14.4506 2.63913L13.7909 3.44877L14.1697 4.41983L15.2083 4.58126V4.58001Z"
          fill="currentColor"/>
    <path d="M9.65826 4.24088L10.271 3.48256L9.92139 2.59158L8.95785 2.43641L8.33371 3.18848L8.68328 4.08446L9.65826 4.23963V4.24088Z"
          fill="currentColor"/>
    <path d="M5.01349 7.51072L5.8067 6.55718L5.35671 5.38465L4.11351 5.2007L3.3203 6.15424L3.77029 7.32677L5.01349 7.51072Z"
          fill="currentColor"/>
    <path d="M1.36526 11.3762L1.79746 12.4674L2.97074 12.6451L3.72327 11.7429L3.30252 10.6454L2.11779 10.4564L1.36526 11.3762Z"
          fill="currentColor"/>
    <path d="M5.07196 16.9898L4.66899 15.9612L3.56562 15.7885L2.86521 16.6507L3.25673 17.6843L4.37154 17.8508L5.07196 16.9886V16.9898Z"
          fill="currentColor"/>
    <path d="M8.05918 19.4262L7.39945 20.2246L7.77317 21.1957L8.81171 21.3571L9.47145 20.5475L9.09264 19.5939L8.05918 19.4275V19.4262Z"
          fill="currentColor"/>
    <path d="M13.6091 19.7591L12.9964 20.5174L13.3473 21.4084L14.3223 21.5636L14.9349 20.8053L14.5841 19.9143L13.6091 19.7591Z"
          fill="currentColor"/>
    <path d="M10.9194 21.6036L10.2253 22.7987L10.9194 24H12.3253L13.0371 22.7987L12.3253 21.6036H10.9194Z"
          fill="currentColor"/>
    <path d="M17.4379 19.5927L16.7781 20.7189L17.4379 21.8451H18.7573L19.4171 20.7189L18.7573 19.5927H17.4379Z"
          fill="currentColor"/>
    <path d="M22.6496 14.3582H21.4128L20.8001 15.4094L21.4128 16.4668H22.6496L23.2687 15.4094L22.6496 14.3582Z"
          fill="currentColor"/>
    <path d="M22.6025 9.56671L23.186 8.58439L22.6025 7.60207H21.4648L20.8814 8.58439L21.4648 9.56671H22.6025Z"
          fill="currentColor"/>
    <path d="M18.6289 4.18958L19.1653 3.27609L18.6289 2.38011H17.5725L17.0361 3.27609L17.5725 4.18958H18.6289Z"
          fill="currentColor"/>
    <path d="M12.3494 2.39637L13.0434 1.19506L12.3494 0H10.9435L10.2431 1.19506L10.9435 2.39637H12.3494Z"
          fill="currentColor"/>
    <path d="M5.82445 4.40732L6.48418 3.28109L5.82445 2.15485H4.51134L3.84652 3.28109L4.51134 4.40732H5.82445Z"
          fill="currentColor"/>
    <path d="M1.84955 9.64179L2.4686 8.58438L1.84955 7.53323H0.619057L0 8.58438L0.619057 9.64179H1.85082H1.84955Z"
          fill="currentColor"/>
    <path d="M0.664775 14.427L0.0813099 15.4094L0.664775 16.3979H1.81391L2.38593 15.4094L1.81391 14.427H0.664775Z"
          fill="currentColor"/>
    <path d="M4.63346 19.8104L4.09703 20.7177L4.63346 21.6312H5.69615L6.23258 20.7177L5.69615 19.8104H4.63346Z"
          fill="currentColor"/>
</svg>
